<svg width="80" height="80" viewBox="0 0 80 80" fill="none" xmlns="http://www.w3.org/2000/svg">
<g clip-path="url(#clip0_1_1478)">
<path d="M73.3333 73.3333H6.66663" stroke="#0891B2" stroke-width="4.99091" stroke-linecap="round"/>
<path d="M70 73.3333V48.3333C70 45.5719 67.7614 43.3333 65 43.3333H55C52.2386 43.3333 50 45.5719 50 48.3333V73.3333" stroke="#0891B2" stroke-opacity="0.5" stroke-width="4.99091"/>
<path d="M50 73.3333V16.6667C50 11.9526 50 9.5956 48.5355 8.13113C47.0711 6.66666 44.714 6.66666 40 6.66666C35.286 6.66666 32.9289 6.66666 31.4645 8.13113C30 9.5956 30 11.9526 30 16.6667V73.3333" stroke="#0891B2" stroke-width="4.99091"/>
<path d="M30 73.3333V31.6667C30 28.9052 27.7614 26.6667 25 26.6667H15C12.2386 26.6667 10 28.9052 10 31.6667V73.3333" stroke="#0891B2" stroke-opacity="0.5" stroke-width="4.99091"/>
</g>
<defs>
<clipPath id="clip0_1_1478">
<rect width="80" height="80" rx="16.6364" fill="white"/>
</clipPath>
</defs>
</svg>
