<svg width="80" height="80" viewBox="0 0 80 80" fill="none" xmlns="http://www.w3.org/2000/svg">
<path d="M6.66663 40C6.66663 27.4292 6.66663 21.1438 10.5719 17.2386C14.4771 13.3333 20.7625 13.3333 33.3333 13.3333H46.6666C59.2374 13.3333 65.5228 13.3333 69.4281 17.2386C73.3333 21.1438 73.3333 27.4292 73.3333 40V46.6667C73.3333 59.2374 73.3333 65.5228 69.4281 69.4281C65.5228 73.3333 59.2374 73.3333 46.6666 73.3333H33.3333C20.7625 73.3333 14.4771 73.3333 10.5719 69.4281C6.66663 65.5228 6.66663 59.2374 6.66663 46.6667V40Z" stroke="#0891B2" stroke-width="4.99091"/>
<path d="M23.3334 13.3333V8.33333" stroke="#0891B2" stroke-opacity="0.5" stroke-width="4.99091" stroke-linecap="round"/>
<path d="M56.6667 13.3333V8.33333" stroke="#0891B2" stroke-opacity="0.5" stroke-width="4.99091" stroke-linecap="round"/>
<path d="M8.33337 30H71.6667" stroke="#0891B2" stroke-opacity="0.5" stroke-width="4.99091" stroke-linecap="round"/>
<path d="M59.9999 56.6667C59.9999 58.5076 58.5075 60 56.6666 60C54.8256 60 53.3333 58.5076 53.3333 56.6667C53.3333 54.8257 54.8256 53.3333 56.6666 53.3333C58.5075 53.3333 59.9999 54.8257 59.9999 56.6667Z" fill="#0891B2"/>
<path d="M59.9999 43.3333C59.9999 45.1743 58.5075 46.6667 56.6666 46.6667C54.8256 46.6667 53.3333 45.1743 53.3333 43.3333C53.3333 41.4924 54.8256 40 56.6666 40C58.5075 40 59.9999 41.4924 59.9999 43.3333Z" fill="#0891B2"/>
<path d="M43.3334 56.6667C43.3334 58.5076 41.841 60 40.0001 60C38.1591 60 36.6667 58.5076 36.6667 56.6667C36.6667 54.8257 38.1591 53.3333 40.0001 53.3333C41.841 53.3333 43.3334 54.8257 43.3334 56.6667Z" fill="#0891B2"/>
<path d="M43.3334 43.3333C43.3334 45.1743 41.841 46.6667 40.0001 46.6667C38.1591 46.6667 36.6667 45.1743 36.6667 43.3333C36.6667 41.4924 38.1591 40 40.0001 40C41.841 40 43.3334 41.4924 43.3334 43.3333Z" fill="#0891B2"/>
<path d="M26.6667 56.6667C26.6667 58.5076 25.1743 60 23.3333 60C21.4924 60 20 58.5076 20 56.6667C20 54.8257 21.4924 53.3333 23.3333 53.3333C25.1743 53.3333 26.6667 54.8257 26.6667 56.6667Z" fill="#0891B2"/>
<path d="M26.6667 43.3333C26.6667 45.1743 25.1743 46.6667 23.3333 46.6667C21.4924 46.6667 20 45.1743 20 43.3333C20 41.4924 21.4924 40 23.3333 40C25.1743 40 26.6667 41.4924 26.6667 43.3333Z" fill="#0891B2"/>
</svg>
