<svg width="80" height="80" viewBox="0 0 80 80" fill="none" xmlns="http://www.w3.org/2000/svg">
<g clip-path="url(#clip0_1_1492)">
<path d="M26.6666 26.6667H53.3333V53.3333H26.6666V26.6667Z" stroke="#0891B2" stroke-opacity="0.5" stroke-width="4.99091"/>
<path d="M53.3333 53.3366L63.3333 53.335C68.8561 53.3342 73.334 57.8106 73.3348 63.3335C73.3357 68.8563 68.8593 73.3342 63.3364 73.335C57.8136 73.3359 53.3357 68.8595 53.3348 63.3366L53.3333 53.3366Z" stroke="#0891B2" stroke-width="4.99091"/>
<path d="M26.6698 53.3366L16.6698 53.335C11.1469 53.3342 6.66908 57.8106 6.66821 63.3335C6.66734 68.8563 11.1438 73.3342 16.6666 73.335C22.1895 73.3359 26.6673 68.8595 26.6682 63.3366L26.6698 53.3366Z" stroke="#0891B2" stroke-width="4.99091"/>
<path d="M53.3333 26.6668L63.3333 26.6684C68.8561 26.6692 73.334 22.1928 73.3348 16.6699C73.3357 11.1471 68.8593 6.66924 63.3364 6.66837C57.8136 6.6675 53.3357 11.144 53.3348 16.6668L53.3333 26.6668Z" stroke="#0891B2" stroke-width="4.99091"/>
<path d="M26.6698 26.6668L16.6698 26.6684C11.1469 26.6692 6.66908 22.1928 6.66821 16.6699C6.66734 11.1471 11.1438 6.66924 16.6666 6.66837C22.1895 6.6675 26.6673 11.144 26.6682 16.6668L26.6698 26.6668Z" stroke="#0891B2" stroke-width="4.99091"/>
</g>
<defs>
<clipPath id="clip0_1_1492">
<rect width="80" height="80" rx="16.6364" fill="white"/>
</clipPath>
</defs>
</svg>
