<svg width="80" height="80" viewBox="0 0 80 80" fill="none" xmlns="http://www.w3.org/2000/svg">
<g clip-path="url(#clip0_1_1501)">
<path d="M49.859 30.2369L40 40L30.141 30.2369C20.3993 20.59 15.5285 15.7666 16.8921 11.605C17.0093 11.2472 17.1549 10.8992 17.3275 10.5642C19.3348 6.66666 26.2232 6.66666 40 6.66666C53.7767 6.66666 60.6651 6.66666 62.6725 10.5642C62.845 10.8992 62.9906 11.2472 63.1078 11.605C64.4714 15.7666 59.6006 20.59 49.859 30.2369Z" stroke="#0891B2" stroke-width="4.99091"/>
<path d="M30.141 49.7631L40 40L49.8589 49.7631C59.6006 59.41 64.4714 64.2334 63.1078 68.395C62.9906 68.7528 62.845 69.1008 62.6725 69.4358C60.6651 73.3333 53.7767 73.3333 40 73.3333C26.2232 73.3333 19.3348 73.3333 17.3275 69.4358C17.1549 69.1008 17.0093 68.7528 16.8921 68.395C15.5285 64.2334 20.3993 59.41 30.1409 49.7631L30.141 49.7631Z" stroke="#0891B2" stroke-opacity="0.5" stroke-width="4.99091"/>
</g>
<defs>
<clipPath id="clip0_1_1501">
<rect width="80" height="80" rx="16.6364" fill="white"/>
</clipPath>
</defs>
</svg>
