<svg width="14" height="8" viewBox="0 0 14 8" fill="none" xmlns="http://www.w3.org/2000/svg">
<g clip-path="url(#clip0_4901_3698)">
<path d="M3.64645 8.35355C3.84171 8.54882 4.15829 8.54882 4.35355 8.35355C4.54882 8.15829 4.54882 7.84171 4.35355 7.64645L3.64645 8.35355ZM0.353553 3.64645C0.158291 3.45118 -0.158291 3.45118 -0.353553 3.64645C-0.548816 3.84171 -0.548816 4.15829 -0.353553 4.35355L0.353553 3.64645ZM-0.353553 3.64645C-0.548816 3.84171 -0.548816 4.15829 -0.353553 4.35355C-0.158291 4.54882 0.158291 4.54882 0.353553 4.35355L-0.353553 3.64645ZM4.35355 0.353553C4.54882 0.158291 4.54882 -0.158291 4.35355 -0.353553C4.15829 -0.548816 3.84171 -0.548816 3.64645 -0.353553L4.35355 0.353553ZM0 3.5C-0.276142 3.5 -0.5 3.72386 -0.5 4C-0.5 4.27614 -0.276142 4.5 0 4.5V3.5ZM14 4.5C14.2761 4.5 14.5 4.27614 14.5 4C14.5 3.72386 14.2761 3.5 14 3.5V4.5ZM4.35355 7.64645L0.353553 3.64645L-0.353553 4.35355L3.64645 8.35355L4.35355 7.64645ZM0.353553 4.35355L4.35355 0.353553L3.64645 -0.353553L-0.353553 3.64645L0.353553 4.35355ZM0 4.5H14V3.5H0V4.5Z" fill="#9FA6B2"/>
</g>
<defs>
<clipPath id="clip0_4901_3698">
<rect width="14" height="8" fill="white"/>
</clipPath>
</defs>
</svg>
