<svg width="16" height="10" viewBox="0 0 16 10" fill="none" xmlns="http://www.w3.org/2000/svg">
<path d="M11.3536 0.646446C11.1583 0.451184 10.8417 0.451184 10.6464 0.646446C10.4512 0.841709 10.4512 1.15829 10.6464 1.35355L11.3536 0.646446ZM14.6464 5.35355C14.8417 5.54882 15.1583 5.54882 15.3536 5.35355C15.5488 5.15829 15.5488 4.84171 15.3536 4.64645L14.6464 5.35355ZM15.3536 5.35355C15.5488 5.15829 15.5488 4.84171 15.3536 4.64645C15.1583 4.45118 14.8417 4.45118 14.6464 4.64645L15.3536 5.35355ZM10.6464 8.64645C10.4512 8.84171 10.4512 9.15829 10.6464 9.35355C10.8417 9.54882 11.1583 9.54882 11.3536 9.35355L10.6464 8.64645ZM15 5.5C15.2761 5.5 15.5 5.27614 15.5 5C15.5 4.72386 15.2761 4.5 15 4.5V5.5ZM1 4.5C0.723858 4.5 0.5 4.72386 0.5 5C0.5 5.27614 0.723858 5.5 1 5.5V4.5ZM10.6464 1.35355L14.6464 5.35355L15.3536 4.64645L11.3536 0.646446L10.6464 1.35355ZM14.6464 4.64645L10.6464 8.64645L11.3536 9.35355L15.3536 5.35355L14.6464 4.64645ZM15 4.5L1 4.5V5.5L15 5.5V4.5Z" fill="#9FA6B2"/>
</svg>
